<svg width="259" height="80" viewBox="0 0 259 80" fill="none" xmlns="http://www.w3.org/2000/svg">
<path d="M61.1359 6.48633H34.337L15.3906 25.4327V52.215L34.337 71.1614H61.1359L80.0823 52.215V25.4327L61.1359 6.48633Z" stroke="#8C8C8C" stroke-width="2" stroke-miterlimit="10"/>
<path d="M5.93213 39.719L19.649 34.5564L26.5493 29.9284L28.7547 28.7923L34.8362 27.8734L37.2254 29.7279L38.2947 28.4414L40.1158 25.8183L43.073 23.5795L47.3335 23.3623L50.2907 24.8159L51.9615 27.723L55.4533 28.7254L52.0784 32.3176L52.1118 36.3274L51.7944 38.349L49.4887 39.3013L52.0784 41.9746L52.6465 43.1107L57.9762 43.261L61.4179 46.6694L62.8047 52.8178L63.5565 60.3529L64.3752 63.3435L63.8071 65.8998C63.8071 65.8998 62.1364 68.9907 62.0361 69.0241C61.9359 69.0575 60.2985 72.115 60.2985 72.115C60.2985 72.115 59.2293 73.1843 59.0121 73.0339C58.7949 72.8836 51.8278 71.5804 51.8278 71.5804L42.1207 66.0335L39.7315 66.4679L39.3473 71.3799L33.6667 70.6615L33.5664 64.3627L30.7262 53.202L25.7807 51.5313C25.7807 51.5313 25.1792 52.0659 25.0289 52.0659C24.8785 52.0659 22.7901 51.4979 22.7901 51.4979L22.222 50.5455L17.9616 48.6242C17.9616 48.6242 15.0545 45.7839 14.6201 45.7839C14.1857 45.7839 10.1424 42.0915 10.1424 42.0915L5.98225 39.7023L5.93213 39.719Z" fill="white"/>
<path d="M77.242 21.2231C77.643 19.7361 77.1417 18.0653 75.9221 17.1297C74.8695 16.311 73.6499 16.1607 72.4135 16.7621L72.213 8.47519C73.5162 7.52286 74.6356 7.35578 75.9889 6.58723C76.0056 6.58723 75.9889 5.86881 75.4877 5.28404C75.187 4.91648 74.8194 4.73269 74.6189 4.64915C73.7835 4.59903 72.9481 4.54891 72.1128 4.49878V4.44866C72.1128 3.54645 72.1462 2.66095 72.1629 1.75874C72.0961 1.64179 71.1604 0.104692 69.3059 0.00444642C67.6686 -0.0790915 66.616 1.04032 66.4823 1.19068L66.5157 4.63245C63.6922 6.7376 61.5202 9.39411 59.7826 12.4182C58.2121 15.2251 57.0592 18.199 56.2072 21.3734C56.2072 21.3734 56.1737 21.4403 56.1236 21.5405C55.4887 22.426 53.8681 22.8771 53.8681 22.8771L49.7413 24.2973C48.3546 23.3616 46.2495 22.8103 44.5954 22.9607C41.5212 23.2447 38.965 25.2663 38.1463 28.3071L36.5089 28.8584L35.5232 28.0231C35.1055 27.6722 34.621 27.5552 34.0696 27.6555L29.9095 28.3906C28.8068 28.5911 27.7041 28.6747 26.735 29.2761L23.1763 31.4815C21.4053 32.5842 19.6844 33.5867 17.997 34.8398L9.79355 37.5965L8.59061 37.9975C8.00584 38.3651 7.40437 38.599 6.76948 38.5488V38.599L3.86237 39.568C2.59259 40.0024 1.60684 40.8211 0.938542 42.0073C-0.431478 44.4466 -0.247695 47.4206 1.13903 49.8432C1.92429 51.2132 3.0604 52.2323 4.53067 52.7503C4.53067 52.7503 4.98177 52.9675 4.53067 52.7336C4.99848 52.9842 5.98423 52.9842 5.98423 52.9842C6.81961 52.9174 7.42108 52.7503 8.1395 52.4495L16.7105 48.707C18.2643 49.7429 19.9183 50.3611 21.7228 50.8623C21.9567 51.2299 22.2574 51.6309 22.5581 51.9316L23.9616 52.4495C24.6967 52.7169 25.3316 52.7169 26.0834 52.3493L28.4559 53.5857C29.0574 53.9031 29.5753 54.2707 30.1434 54.6884C30.5276 57.1778 30.9286 59.5837 31.5134 62.023L31.7306 64.1281L31.9478 70.9114L33.7355 72.4151H33.8023C33.8023 72.4151 33.819 72.5655 33.8357 72.6323C33.8357 72.6657 33.8357 72.7158 33.8524 72.7492C34.0863 74.2696 34.504 75.6898 35.3394 76.9429C36.676 79.0313 38.8981 80.1507 41.4043 79.9836C45.9487 79.8667 50.7438 76.1075 53.6342 72.7492L56.9256 73.2338C57.7443 73.3507 58.4794 73.9188 59.3983 73.6682C61.0691 73.2338 61.9379 71.0451 62.389 69.5414H62.4224C62.6897 68.5891 63.4917 67.9542 64.1767 67.2023C64.2435 67.1355 64.2769 67.0353 64.3103 66.9183L64.2268 66.9517V65.1306C65.0288 63.8107 64.8951 62.7414 64.1098 61.4048C64.3437 59.7842 64.0764 58.2638 63.5919 56.6766C63.4582 56.2589 63.6754 55.624 63.759 55.1395C64.3939 55.7242 64.9786 56.3257 65.7973 56.593C67.9693 57.3114 70.1413 56.3925 71.3275 54.4544C73.583 50.8289 73.5496 45.282 73.0651 41.1051C74.3015 40.3365 75.5044 39.7351 76.8076 39.1169C76.9747 39.0334 77.0916 38.8329 77.1752 38.6324C77.0081 38.0309 76.841 37.5464 76.5904 36.995L75.0867 36.7611L74.9363 35.2073C74.9029 34.9233 74.1344 34.94 74.1177 35.2073L74.0341 36.7945L72.8479 36.8614L72.7978 32.5174L72.8813 32.5842C72.8145 31.8992 72.8479 31.1975 72.7644 30.5125H72.7477L72.5806 24.3641L75.9889 22.8604C76.6238 22.4761 76.9914 21.8914 77.242 21.173V21.2231ZM76.1059 37.396L76.156 38.2982L72.9481 38.2147C72.9147 37.9808 72.898 37.7469 72.898 37.4461L76.1226 37.396H76.1059ZM72.2297 5.06684C73.7334 5.13367 74.3182 4.66586 75.187 5.90222L72.213 5.80198C72.1796 5.58478 72.1796 5.28404 72.213 5.06684H72.2297ZM71.127 2.56071L71.4779 16.9961C70.9934 17.23 70.5423 17.3803 69.9742 17.5474L69.5732 1.50813C70.1747 1.82557 70.6091 2.14302 71.1103 2.57741L71.127 2.56071ZM61.0691 11.9337C62.5727 9.54448 64.3103 7.4059 66.616 5.61819L66.9167 18.5833L58.6465 21.34C58.1452 21.5071 57.6106 21.3734 57.1428 21.3734C58.0116 18.0319 59.2646 14.8742 61.0691 11.9504V11.9337ZM48.2878 25.4167L48.3713 25.3331L47.82 24.5479L47.3856 24.2471C47.5526 24.2471 47.7698 24.3307 47.9035 24.4142C49.5575 24.7818 50.7438 26.3022 51.3787 27.8393L49.5241 27.9228C49.1733 27.9228 48.7389 28.0732 48.3713 28.1233C47.302 25.7508 45.9988 24.5479 43.3089 24.0801C45.1468 23.4118 46.9345 24.2137 48.3045 25.4L48.2878 25.4167ZM38.5306 32.4172C39.3659 31.5317 40.4018 30.9636 41.4878 30.5292L42.0224 30.3287V30.195C41.7885 30.195 41.5379 30.195 41.4043 30.2285C40.7861 30.3788 39.5163 30.7965 38.9483 31.0471C38.3802 29.0756 40.1512 25.3666 42.1227 24.9656C44.5954 24.1636 46.734 26.1518 47.4524 28.3739C46.5836 28.7248 45.8318 29.0422 45.13 29.5936C48.1207 28.7916 50.7939 27.9228 53.9182 29.1258C52.9492 29.5769 52.047 29.7774 51.0779 29.9611C48.3379 30.4958 45.6313 30.6963 42.8411 30.8132C42.4067 30.9803 41.8888 31.1307 41.5379 31.3145C40.335 31.8992 39.2824 32.5007 38.1964 33.2859C38.163 32.9685 38.3134 32.6511 38.5306 32.4172ZM55.6892 41.0717C56.3575 41.7066 57.4268 41.8904 58.1285 41.2555C59.5988 39.969 59.6656 36.2432 59.5988 34.3719L59.0307 30.3454L66.3654 27.1209C65.2961 30.0614 64.3772 32.8181 63.5585 35.7253L62.2219 41.8068C61.988 43.5945 61.8042 45.3154 61.8543 47.0864C61.3698 45.9002 60.8519 44.881 59.9162 44.079C58.0116 42.4584 55.5723 41.8736 53.0828 42.3582C51.646 41.0884 51.93 40.3867 50.0254 39.7017C51.1448 38.9498 52.2475 39.0668 52.2642 37.6299C52.2642 36.1429 52.3978 34.6894 52.5983 33.2191L53.8013 32.6678C53.5841 35.4245 53.5674 39.1002 55.6892 41.0884V41.0717ZM54.7369 32.2167L58.2789 30.6796C58.8637 33.7538 59.0976 35.7921 58.4961 38.8663C58.3457 39.4343 58.1619 39.9857 57.8111 40.4535C57.4268 40.9881 56.8588 40.938 56.3909 40.5872C55.6224 40.0024 55.188 39.1503 54.904 38.198C54.386 36.2265 54.4195 34.2049 54.7369 32.2V32.2167ZM62.5226 57.4785C62.9403 58.4643 63.0406 59.5837 63.074 60.6028C62.1049 59.851 61.0189 59.5168 59.9831 59.049C57.7443 58.4309 55.4887 58.364 53.3168 59.049C52.4814 56.4594 52.5983 53.9031 53.3836 51.2633C51.4622 53.1847 51.0779 56.9439 51.4789 59.4333L50.3094 61.2043C48.8057 61.0372 47.3354 60.7198 45.9654 60.1684C45.4141 59.9512 45.0966 59.6004 44.9797 58.9989C44.7959 58.0299 44.4952 57.111 43.9939 56.192C46.8509 52.483 51.3787 48.139 55.873 46.7355C56.2907 46.6019 56.7418 46.6186 57.1261 46.5685C58.2622 46.4181 59.1644 46.8525 59.9329 47.6378C62.0548 49.8599 63.0406 52.9173 62.389 55.9414L61.4868 55.0893L62.5226 57.4952V57.4785ZM42.2062 56.9105C41.1871 56.4427 40.3517 55.6073 39.5998 54.6716C41.2539 51.8982 43.2588 49.5257 45.6647 47.454C48.1207 45.3321 51.646 43.2437 55.0042 43.3272C56.9924 43.3606 58.8971 44.3631 60.0332 46.0672C56.5079 45.0648 53.5841 46.1675 50.7772 48.022C47.2185 50.3277 44.6957 53.3517 42.2229 56.9272L42.2062 56.9105ZM44.2947 38.883C44.6455 39.3007 45.3305 39.3842 45.7984 39.6181L46.0323 40.9714C46.0824 41.3056 46.333 41.5061 46.6504 41.5562C46.1659 42.4083 45.648 43.2771 45.2971 44.1125C45.0632 44.6638 44.8794 44.5636 44.445 44.7139C43.8436 44.9144 43.2087 45.0815 42.507 45.2152C41.4377 44.3631 41.3541 44.3798 41.3541 43.511C41.3541 41.3724 41.4878 39.2338 41.7217 37.0619C42.1895 36.7778 42.3733 36.31 42.2229 35.8756C41.7718 36.5439 40.4018 35.2909 40.335 33.7203C40.335 33.5031 40.4686 33.1857 40.619 33.0687C40.8028 32.9184 41.2539 32.8683 41.4711 32.9685C41.8888 33.1523 42.0726 33.4697 42.3232 33.9208L43.6264 33.5533C43.5261 32.8348 43.4593 32.2835 43.4927 31.5985L45.7482 31.4314L45.4308 31.9159L47.6028 32.0997C48.4047 32.1665 48.672 31.3646 49.7246 31.0137L50.4932 32.2167C50.4932 32.2167 50.5433 31.8992 50.6268 31.8992L51.4455 31.8157C52.3143 32.9852 51.5625 34.6894 51.646 36.995C51.646 37.3459 51.646 37.7803 51.4455 38.0309L50.3261 37.8805C49.8082 37.8137 49.19 37.9307 48.6386 38.0476L46.617 38.4653C45.5979 38.6825 44.6789 38.3316 43.9772 37.5297C43.8269 37.3626 43.6264 37.1788 43.4593 37.112C43.6264 37.6968 43.8937 38.3651 44.2947 38.8663V38.883ZM40.6357 38.3316V39.3508C39.7669 39.7351 39.2156 40.2363 38.447 40.8545C38.2298 41.0048 37.6283 40.938 37.3443 40.9213C36.3419 40.8879 35.4731 40.9213 34.4539 41.0048L40.619 38.3149L40.6357 38.3316ZM25.8662 30.8299C26.735 30.2619 27.5537 29.5602 28.623 29.3263C30.6613 28.9086 32.6328 28.6412 34.7212 28.3238C37.5114 30.1449 36.8765 30.4122 37.0937 32.5508C37.1271 32.8181 36.96 33.0687 36.7596 33.1356C35.8239 33.4029 36.0913 31.4982 35.7237 30.7464C35.4397 30.1616 34.8549 29.627 34.2868 29.3764C34.621 30.1115 35.2225 30.5459 35.4062 31.2476C35.6067 32.083 35.6401 32.9685 35.5566 33.8206C35.4731 33.9877 35.0554 34.0712 34.905 34.0211C34.7212 33.971 34.504 33.737 34.4539 33.5366L34.0362 31.4481C33.9193 30.8801 33.0505 29.9778 32.5827 29.6437L32.4824 29.7439L33.5016 31.3312C34.0362 32.1665 34.0696 33.3528 33.9193 34.3051C33.4013 34.6058 32.7832 34.1547 32.6161 33.6368C32.048 31.9326 32.6161 31.7823 30.5109 30.1616C30.8117 30.8634 31.2461 31.3813 31.5802 32.0329C31.7139 32.3002 32.165 34.1547 32.0146 34.4889C31.4967 34.7896 30.8785 34.5223 30.6947 33.9542L30.277 32.6678L29.0073 31.3312C28.2721 32.1164 27.019 31.8324 26.6014 31.9493L22.0736 33.3194L25.8328 30.8633L25.8662 30.8299ZM10.2112 46.9527C10.111 49.509 8.40682 52.2825 5.44959 51.7645C2.24173 51.2132 0.704636 47.2702 1.35623 44.2461C1.64026 42.8928 2.3921 41.6732 3.57834 40.9881C5.08202 40.1193 6.91985 40.4702 8.17292 41.6564C9.60977 43.0098 10.2781 44.9645 10.2112 46.9527ZM18.7321 48.54L21.4721 47.8048V49.6761C20.5699 49.4088 19.6844 49.0746 18.7321 48.54ZM22.5581 50.0771C22.3576 49.1247 22.4412 48.2392 22.7085 47.3036L24.6132 46.6353C24.0785 48.3896 24.279 49.9935 24.8137 51.6977C23.7444 51.4137 22.7753 51.0962 22.5581 50.0604V50.0771ZM15.5744 42.2579L11.9655 43.6112C11.481 41.8402 10.512 40.4869 8.92476 39.6181L28.4392 33.052C29.2244 33.3695 29.2579 34.4722 30.2269 35.3911C30.6613 35.8088 31.2294 35.8756 31.9645 36.0093L15.5744 42.2579ZM34.1532 59.7173C33.6519 60.8033 33.819 61.9729 34.6711 62.8249C34.5709 63.3429 34.4706 63.8107 34.2868 64.362L32.4657 58.2471C31.5635 55.1896 31.6638 51.4137 32.048 48.139C31.363 49.0746 31.0623 50.1272 30.7281 51.2466C29.9763 49.9434 28.9905 49.1247 27.7208 48.3562V48.4731C28.2888 49.6761 28.9905 50.8122 29.4918 52.1989L25.7827 50.7955C25.6156 50.6451 25.4652 50.194 25.3984 49.9601C25.1812 48.6235 25.3984 47.3537 26.0166 46.1508L28.6397 45.165L33.6687 42.8928C34.905 42.3247 36.2082 42.0407 37.5448 42.3415L35.4397 46.0004C36.6092 45.9002 37.6618 45.7164 38.7979 45.7331L40.736 47.6712C40.4185 46.6687 39.9674 45.7164 39.4328 44.7641C38.7645 44.4633 37.9291 44.6805 37.2107 44.9144L39.0151 41.6397C39.3158 41.0884 40.0008 40.7375 40.5522 40.4201C39.9006 44.1292 40.9532 44.5803 41.6215 47.2702C41.7885 47.9886 41.5212 48.6903 41.5045 49.4756L43.192 47.2201C43.8101 46.3847 44.7124 45.8333 45.5477 45.2319C46.6504 44.4633 47.7197 43.7115 48.7055 42.8093C49.3404 42.2245 49.7246 41.6063 49.9418 40.7041C50.1924 40.8378 50.4263 41.0216 50.6101 41.2388L51.8298 42.6255C50.4932 43.0933 49.2902 43.6614 48.0873 44.3965C44.2613 46.769 41.9055 49.4088 39.3158 53.0844C38.1797 53.1346 37.8121 52.6166 36.7094 53.3517C36.1748 53.7193 36.0578 54.3876 35.9409 54.9724C35.2058 55.5237 34.5709 56.2422 34.8048 57.2947C34.0696 57.9129 33.8859 58.7984 34.1365 59.7006L34.1532 59.7173ZM34.7881 71.0952C34.7212 68.6058 35.1389 66.1832 35.8239 63.7439C36.8765 64.5458 37.9458 65.0972 39.132 65.5817C38.6308 67.9375 38.3635 70.193 38.3301 72.532C38.4637 75.105 38.848 77.5109 41.1369 79.0313C36.6593 78.9979 34.905 75.0048 34.8048 71.0952H34.7881ZM41.8219 75.2888C40.3183 75.0382 39.8338 73.8519 39.7168 72.4151H48.7222C46.9846 74.0023 44.0106 75.6564 41.8052 75.2888H41.8219ZM40.0677 70.2097L40.6023 67.3026L42.2062 67.5532L46.0991 70.0927L40.0677 70.2097ZM58.7467 72.5153C57.761 72.6824 56.0568 71.4294 55.0042 71.0952L56.0401 72.1311C52.3644 71.7802 48.9561 69.3075 46.0824 67.2357C44.9463 66.4171 43.8937 65.565 42.5404 65.1139C41.6382 64.8131 39.8672 65.2141 37.9959 63.8775C36.8097 63.0254 34.5709 61.7891 34.9718 60.3522L36.108 61.1208C35.4898 60.1183 34.5709 59.0824 35.4397 58.0633L36.6593 59.3331L35.8908 57.4117C35.6569 56.8102 35.8406 56.1252 36.4755 55.8412L37.762 57.4785L36.9099 55.0058C36.8097 54.7051 37.0603 54.2707 37.2441 54.1036C37.478 53.8864 37.9458 53.853 38.2632 53.9198C38.6976 54.0033 38.7143 54.1704 38.8146 54.5213C39.3492 56.2589 41.1202 57.2947 42.6573 57.9129L43.476 56.7935C43.9271 57.7458 44.1276 58.5979 44.3281 59.567C44.4617 60.1517 44.7792 60.5193 45.3472 60.7699C47.2185 61.6387 49.2067 62.0564 51.2784 62.3404C54.5865 62.7748 59.2312 63.7104 60.9187 66.8348C61.1192 67.219 61.5369 67.6367 61.5369 68.1547C61.5202 69.8588 60.3673 72.248 58.7634 72.5153H58.7467ZM63.4081 64.3286C62.8067 63.0923 60.7349 62.1065 59.6656 61.6888C59.5821 61.6554 59.2814 61.6888 59.1811 61.7055C59.3148 61.8225 59.4651 61.9394 59.5988 62.0063C60.9855 62.8082 62.1383 63.9444 62.8067 65.3979C63.1742 66.1832 62.9904 67.1355 62.3388 67.7036C61.7207 66.25 60.7182 65.2141 59.6823 64.1783C57.5939 62.5743 55.472 61.8726 52.8656 61.5719C52.8656 61.0874 52.9659 60.5026 53.3836 60.252C55.1379 59.1994 57.9949 59.45 59.8661 59.9512C60.7683 60.1851 61.5703 60.536 62.2887 61.0539C63.2912 61.7891 63.9595 63.1257 63.4081 64.3119V64.3286ZM70.1747 54.6884C68.9717 56.1085 66.9835 56.5262 65.413 55.507C64.7781 55.0893 63.9261 54.2874 63.8425 53.5188C63.6921 52.0987 63.3747 50.9124 62.9904 49.5591C62.4558 47.6712 62.6897 45.683 62.7899 43.7282C63.1074 41.339 63.5251 39.1336 64.1098 36.8112C64.9619 33.7538 65.814 30.7965 67.1005 27.7892L67.4848 44.0289C68.3369 44.6137 69.356 45.0481 70.4253 44.998C71.2106 44.9645 71.7953 44.4132 72.5305 43.9621C72.7309 47.1867 72.3801 52.082 70.1747 54.6884ZM70.1747 25.5002L71.645 24.9155L72.0793 43.1768C71.7285 43.6279 71.244 43.7616 70.6425 43.8953L70.158 25.5002H70.1747ZM68.8381 21.5572L53.2165 27.5218C52.7654 27.4383 52.5816 27.1543 52.3811 26.8535L51.3787 25.4L74.1344 17.7479C74.786 17.915 75.2371 18.3661 75.471 19.0177L68.8214 21.5739L68.8381 21.5572Z" fill="#8C8C8C"/>
<path d="M31.964 36.01L15.5739 42.2586L11.9651 43.6119C11.4806 41.8409 10.5115 40.4876 8.92432 39.6188L28.4388 33.0527C29.224 33.3702 29.2574 34.4729 30.2265 35.3918C30.6609 35.8095 31.2289 35.8763 31.964 36.01Z" fill="white"/>
<path d="M10.2093 46.9527C10.109 49.5089 8.40487 52.2657 5.44763 51.7644C2.23978 51.2131 0.702681 47.2701 1.35428 44.246C1.6383 42.8927 2.39014 41.6731 3.57638 40.988C5.08006 40.1193 6.91789 40.4701 8.17096 41.6563C9.60781 43.0097 10.2761 44.9644 10.2093 46.9527Z" fill="white"/>
<path d="M50.7769 48.0223C47.2182 50.3279 44.6953 53.352 42.2226 56.9274C41.2034 56.4596 40.3681 55.6242 39.6162 54.6886C41.2703 51.9152 43.2752 49.5427 45.6811 47.4709C48.0869 45.3992 51.6624 43.2606 55.0206 43.3442C57.0088 43.3776 58.9134 44.38 60.0496 46.0842C56.5243 45.0818 53.6004 46.1845 50.7936 48.039L50.7769 48.0223Z" fill="white"/>
<path d="M53.2314 27.523C52.7803 27.4394 52.5965 27.1554 52.396 26.8547L51.3936 25.4011L74.1493 17.749C74.8009 17.9161 75.252 18.3672 75.4859 19.0188L68.8363 21.5751L53.2147 27.5397L53.2314 27.523Z" fill="white"/>
<path d="M36.0902 61.1377C36.1737 61.2881 36.2573 61.5387 36.4243 61.6556C39.9831 63.9279 42.957 63.7107 43.4582 63.9947L47.468 66.2836C49.7403 67.5868 56.1226 70.6777 58.6454 70.1932C60.1491 69.8925 60.9678 68.2718 60.9009 66.835C61.1014 67.2192 61.5191 67.6369 61.5191 68.1549C61.5024 69.859 60.3496 72.2482 58.7456 72.5156C57.7599 72.6826 56.0557 71.4296 55.0032 71.0954L56.039 72.1313C52.3634 71.7804 48.955 69.3077 46.0813 67.236C44.9452 66.4173 43.8926 65.5652 42.5393 65.1308C41.6371 64.8301 39.8661 65.231 37.9948 63.8944C36.8086 63.0424 34.5698 61.806 34.9708 60.3691L36.1069 61.1377H36.0902Z" fill="#8C8C8C"/>
<path d="M38.3282 72.5157C38.4618 75.0887 38.8461 77.4946 41.1351 79.015C36.6574 78.9816 34.9031 74.9884 34.8029 71.0789C34.7361 68.5894 35.1538 66.1668 35.8221 63.7275C36.8746 64.5295 37.9439 65.0809 39.1301 65.5654C38.6289 67.9211 38.3616 70.1767 38.3282 72.5157Z" fill="white"/>
<path d="M59.9814 59.0491C60.3657 56.3592 60.1318 53.5691 59.5303 50.8791C59.3298 49.9769 58.9957 49.1583 58.5947 48.3563C58.0433 47.2536 57.5588 47.2369 57.1411 46.5686C58.2772 46.4182 59.1794 46.8526 59.948 47.6379C62.0698 49.86 63.0556 52.9175 62.404 55.9415L61.5018 55.0894L62.5377 57.4953C62.9553 58.4811 63.0556 59.6005 63.089 60.6197C62.12 59.8678 61.034 59.5337 59.9981 59.0659L59.9814 59.0491Z" fill="#8C8C8C"/>
<path d="M72.0791 43.1774C71.7282 43.6285 71.2437 43.7622 70.6422 43.8958L70.1577 25.5008L71.628 24.916L72.0624 43.1774H72.0791Z" fill="white"/>
<path d="M71.474 16.9796C70.9895 17.2135 70.5384 17.3639 69.9703 17.531L69.5693 1.10742C70.1708 1.42487 70.6052 1.74231 71.1064 2.17671L71.4573 16.9796H71.474Z" fill="white"/>
<path d="M43.4582 37.1448C43.6253 37.7296 43.8926 38.3979 44.2936 38.8991C44.6444 39.3168 45.3294 39.4003 45.7972 39.6342L46.0311 40.9876C46.0813 41.3217 46.3319 41.5222 46.6493 41.5723C46.1648 42.4244 45.6469 43.2932 45.296 44.1286C45.0621 44.6799 44.8783 44.5797 44.4439 44.73C43.926 42.7084 43.4916 40.7035 43.0572 38.6151C43.0405 38.5148 42.9402 38.3812 42.8901 38.3143C42.8567 38.2642 42.6061 38.3979 42.5894 38.4814L41.6036 43.0927C41.5535 43.2932 41.4366 43.477 41.353 43.5605C41.353 41.4219 41.4867 39.2834 41.7206 37.1114C42.1884 36.8274 42.3722 36.3595 42.2218 35.9252C42.439 35.591 43.2076 36.2259 43.4582 37.1615V37.1448Z" fill="#8C8C8C"/>
<path d="M46.0978 70.0939L40.0664 70.2108L40.601 67.3037L42.2217 67.5543L46.0978 70.0939Z" fill="#8C8C8C"/>
<path d="M42.1028 24.9492C41.0001 26.8038 41.0836 28.1404 41.4011 30.2288C40.7829 30.3792 39.5131 30.7969 38.9451 31.0475C38.377 29.076 40.148 25.3669 42.1195 24.9659L42.1028 24.9492Z" fill="#8C8C8C"/>
<path d="M59.6814 64.1955C60.049 64.2289 59.4308 62.3577 59.5812 62.0068C60.9679 62.8088 62.1207 63.9449 62.789 65.3985C63.1566 66.1837 62.9728 67.1361 62.3212 67.7041C61.7031 66.2506 60.7006 65.2147 59.6647 64.1788L59.6814 64.1955Z" fill="#8C8C8C"/>
<path d="M50.3411 37.9125L50.5249 36.9769C50.1907 36.8599 49.9568 36.8265 49.8398 36.6761L50.3411 36.626C50.6084 36.6093 50.8423 36.3086 50.8256 36.0413L50.1239 36.0914V35.4899L51.1263 35.4732C50.9091 35.2059 50.6752 35.0555 50.3077 34.9887C50.2575 34.7548 50.2074 34.5209 50.1239 34.287L50.7253 33.7022C50.7253 33.7022 50.8423 33.4182 50.8089 33.368L50.6251 33.1676C50.6251 32.9169 50.6251 32.4658 50.4914 32.2486C50.4747 32.1985 50.5416 31.9312 50.6251 31.9312L51.4438 31.8477C52.3126 33.0172 51.5607 34.7214 51.6443 37.027C51.6443 37.3779 51.6443 37.8123 51.4438 38.0629L50.3244 37.9125H50.3411Z" fill="#8C8C8C"/>
<path d="M59.6646 61.6887C59.7648 61.1206 59.8316 60.5358 59.865 59.9678C60.7672 60.2017 61.5692 60.5525 62.2876 61.0705C63.2901 61.8056 63.9584 63.1422 63.407 64.3284C62.8056 63.0921 60.7338 62.1063 59.6646 61.6887Z" fill="#8C8C8C"/>
<path d="M49.522 27.9402C49.4719 27.439 48.7535 26.47 48.6867 25.9687C48.6533 25.7348 48.5864 25.5678 48.3692 25.3339L47.8179 24.5486L47.9014 24.4316C49.5555 24.7992 50.7417 26.3196 51.3766 27.8567L49.522 27.9402Z" fill="#8C8C8C"/>
<path d="M41.521 31.3146C40.318 31.8993 39.2654 32.5008 38.1795 33.2861C38.146 32.9686 38.2964 32.6345 38.5136 32.4173C39.349 31.515 40.3849 30.9637 41.4708 30.5293L41.5043 31.3146H41.521Z" fill="#8C8C8C"/>
<path d="M76.1564 38.2987L72.9486 38.2152C72.9151 37.9813 72.8984 37.7473 72.8984 37.4466L76.123 37.3965L76.1731 38.2987H76.1564Z" fill="white"/>
<path d="M75.1855 5.90174L72.2116 5.8015C72.1782 5.5843 72.1782 5.28356 72.2116 5.06637C73.7153 5.1332 74.3 4.66538 75.1688 5.90174H75.1855Z" fill="white"/>
<path d="M47.9017 24.4309L47.8182 24.5478L47.3838 24.2471C47.5509 24.2471 47.7681 24.3306 47.9017 24.4141V24.4309Z" fill="#8C8C8C"/>
<path d="M50.6267 33.1683L50.8104 33.3688C50.8104 33.3688 50.7937 33.6528 50.7269 33.7029L50.1254 34.2877L48.6719 33.8199C49.123 33.5359 49.524 33.3019 49.9751 33.1182L50.61 33.1683H50.6267Z" fill="#8C8C8C"/>
<path d="M50.325 34.9899C50.6926 35.0567 50.9265 35.2071 51.1437 35.4744H50.1412C49.3226 35.5078 47.4179 35.8086 48.1698 35.4911L49.64 34.8896L50.325 34.9732V34.9899Z" fill="#8C8C8C"/>
<path d="M49.8388 36.6603C49.3877 36.6937 49.0535 36.4431 48.853 36.1591L50.1228 36.0755L50.8245 36.0254C50.8245 36.2927 50.6073 36.5767 50.34 36.6102L49.8388 36.6603Z" fill="#8C8C8C"/>
<path d="M99.4716 17.4551V34.3492H95.689V17.4551H99.4716ZM109.566 17.4551L102.952 25.9021L99.1003 30.0792L98.4157 26.5635L100.957 22.9201L104.925 17.4551H109.566ZM105.18 34.3492L100.516 26.6331L103.393 24.3937L109.659 34.3492H105.18Z" fill="#8C8C8C"/>
<path d="M110.854 32.6319C110.854 32.1059 111.04 31.665 111.411 31.3091C111.79 30.9533 112.281 30.7754 112.885 30.7754C113.496 30.7754 113.983 30.9533 114.347 31.3091C114.718 31.665 114.904 32.1059 114.904 32.6319C114.904 33.1502 114.718 33.5872 114.347 33.943C113.983 34.2989 113.496 34.4768 112.885 34.4768C112.281 34.4768 111.79 34.2989 111.411 33.943C111.04 33.5872 110.854 33.1502 110.854 32.6319Z" fill="#8C8C8C"/>
<path d="M125.764 17.4551V34.3492H121.993V17.4551H125.764ZM130.904 17.4551V20.3907H116.957V17.4551H130.904Z" fill="#8C8C8C"/>
<path d="M129.86 32.6319C129.86 32.1059 130.046 31.665 130.417 31.3091C130.796 30.9533 131.287 30.7754 131.891 30.7754C132.502 30.7754 132.989 30.9533 133.352 31.3091C133.724 31.665 133.909 32.1059 133.909 32.6319C133.909 33.1502 133.724 33.5872 133.352 33.943C132.989 34.2989 132.502 34.4768 131.891 34.4768C131.287 34.4768 130.796 34.2989 130.417 33.943C130.046 33.5872 129.86 33.1502 129.86 32.6319Z" fill="#8C8C8C"/>
<path d="M138.713 17.4551H141.846L145.907 29.5339L149.956 17.4551H153.089L147.172 34.3492H144.631L138.713 17.4551ZM136.903 17.4551H140.094L140.686 29.9748V34.3492H136.903V17.4551ZM151.709 17.4551H154.911V34.3492H151.117V29.9748L151.709 17.4551Z" fill="#8C8C8C"/>
<path d="M157.731 32.6319C157.731 32.1059 157.916 31.665 158.287 31.3091C158.667 30.9533 159.158 30.7754 159.761 30.7754C160.372 30.7754 160.859 30.9533 161.223 31.3091C161.594 31.665 161.78 32.1059 161.78 32.6319C161.78 33.1502 161.594 33.5872 161.223 33.943C160.859 34.2989 160.372 34.4768 159.761 34.4768C159.158 34.4768 158.667 34.2989 158.287 33.943C157.916 33.5872 157.731 33.1502 157.731 32.6319Z" fill="#8C8C8C"/>
<path d="M107.176 59.3875V62.3115H98.1836V59.3875H107.176ZM99.4716 45.4174V62.3115H95.689V45.4174H99.4716ZM106.016 52.2168V55.048H98.1836V52.2168H106.016ZM107.188 45.4174V48.353H98.1836V45.4174H107.188Z" fill="#8C8C8C"/>
<path d="M120.055 59.3875V62.3115H111.527V59.3875H120.055ZM112.815 45.4174V62.3115H109.032V45.4174H112.815Z" fill="#8C8C8C"/>
<path d="M133.399 59.3875V62.3115H124.407V59.3875H133.399ZM125.694 45.4174V62.3115H121.912V45.4174H125.694ZM132.239 52.2168V55.048H124.407V52.2168H132.239ZM133.411 45.4174V48.353H124.407V45.4174H133.411Z" fill="#8C8C8C"/>
<path d="M144.967 56.6492H148.727C148.665 57.8095 148.348 58.8344 147.775 59.724C147.21 60.6058 146.425 61.2981 145.42 61.8009C144.414 62.296 143.219 62.5435 141.834 62.5435C140.728 62.5435 139.738 62.354 138.864 61.975C137.99 61.596 137.247 61.0545 136.636 60.3506C136.033 59.6389 135.569 58.7841 135.244 57.7863C134.927 56.7807 134.768 55.6475 134.768 54.3866V53.3539C134.768 52.093 134.934 50.9598 135.267 49.9542C135.6 48.9486 136.075 48.09 136.694 47.3783C137.313 46.6667 138.056 46.1213 138.922 45.7423C139.788 45.3633 140.755 45.1737 141.823 45.1737C143.262 45.1737 144.476 45.4329 145.466 45.9511C146.456 46.4694 147.222 47.1811 147.764 48.0861C148.313 48.9912 148.641 50.0238 148.75 51.1841H144.979C144.948 50.5266 144.824 49.9735 144.607 49.5249C144.391 49.0685 144.058 48.7243 143.61 48.4922C143.161 48.2602 142.565 48.1441 141.823 48.1441C141.281 48.1441 140.806 48.2447 140.396 48.4458C139.993 48.6469 139.657 48.9602 139.386 49.3857C139.123 49.8111 138.926 50.3526 138.794 51.0101C138.663 51.6599 138.597 52.4334 138.597 53.3307V54.3866C138.597 55.2762 138.655 56.0458 138.771 56.6956C138.887 57.3454 139.073 57.883 139.328 58.3084C139.591 58.7339 139.928 59.051 140.338 59.2599C140.748 59.4687 141.246 59.5732 141.834 59.5732C142.507 59.5732 143.068 59.4687 143.517 59.2599C143.965 59.0433 144.31 58.7184 144.549 58.2852C144.789 57.852 144.928 57.3067 144.967 56.6492Z" fill="#8C8C8C"/>
<path d="M158.345 45.4174V62.3115H154.574V45.4174H158.345ZM163.486 45.4174V48.353H149.539V45.4174H163.486Z" fill="#8C8C8C"/>
<path d="M165.354 45.4174H171.84C173.132 45.4174 174.249 45.6108 175.193 45.9976C176.145 46.3843 176.876 46.9567 177.386 47.7148C177.897 48.4729 178.152 49.4089 178.152 50.5228C178.152 51.451 178.001 52.24 177.699 52.8898C177.398 53.5396 176.972 54.0772 176.423 54.5026C175.882 54.9281 175.247 55.2723 174.52 55.5353L173.29 56.2083H167.767L167.744 53.2727H171.851C172.416 53.2727 172.884 53.1721 173.255 52.971C173.627 52.7699 173.905 52.4875 174.091 52.124C174.284 51.7527 174.381 51.3195 174.381 50.8244C174.381 50.3139 174.284 49.873 174.091 49.5017C173.897 49.1304 173.611 48.848 173.232 48.6547C172.861 48.4535 172.397 48.353 171.84 48.353H169.136V62.3115H165.354V45.4174ZM174.706 62.3115L170.912 54.8043L174.903 54.7927L178.755 62.1374V62.3115H174.706Z" fill="#8C8C8C"/>
<path d="M184.742 45.4174V62.3115H180.971V45.4174H184.742Z" fill="#8C8C8C"/>
<path d="M197.506 56.6492H201.265C201.203 57.8095 200.886 58.8344 200.314 59.724C199.749 60.6058 198.964 61.2981 197.958 61.8009C196.953 62.296 195.758 62.5435 194.373 62.5435C193.267 62.5435 192.277 62.354 191.403 61.975C190.529 61.596 189.786 61.0545 189.175 60.3506C188.571 59.6389 188.107 58.7841 187.782 57.7863C187.465 56.7807 187.307 55.6475 187.307 54.3866V53.3539C187.307 52.093 187.473 50.9598 187.806 49.9542C188.138 48.9486 188.614 48.09 189.233 47.3783C189.852 46.6667 190.594 46.1213 191.461 45.7423C192.327 45.3633 193.294 45.1737 194.361 45.1737C195.8 45.1737 197.015 45.4329 198.005 45.9511C198.995 46.4694 199.761 47.1811 200.302 48.0861C200.851 48.9912 201.18 50.0238 201.288 51.1841H197.517C197.486 50.5266 197.363 49.9735 197.146 49.5249C196.93 49.0685 196.597 48.7243 196.148 48.4922C195.7 48.2602 195.104 48.1441 194.361 48.1441C193.82 48.1441 193.344 48.2447 192.934 48.4458C192.532 48.6469 192.195 48.9602 191.925 49.3857C191.662 49.8111 191.465 50.3526 191.333 51.0101C191.202 51.6599 191.136 52.4334 191.136 53.3307V54.3866C191.136 55.2762 191.194 56.0458 191.31 56.6956C191.426 57.3454 191.611 57.883 191.867 58.3084C192.13 58.7339 192.466 59.051 192.876 59.2599C193.286 59.4687 193.785 59.5732 194.373 59.5732C195.046 59.5732 195.607 59.4687 196.055 59.2599C196.504 59.0433 196.848 58.7184 197.088 58.2852C197.328 57.852 197.467 57.3067 197.506 56.6492Z" fill="#8C8C8C"/>
<path d="M210.385 48.6315L206.022 62.3115H201.985L208.239 45.4174H210.791L210.385 48.6315ZM214.005 62.3115L209.631 48.6315L209.179 45.4174H211.766L218.043 62.3115H214.005ZM213.82 56.0226V58.9466H205.013V56.0226H213.82Z" fill="#8C8C8C"/>
<path d="M230.47 59.3875V62.3115H221.942V59.3875H230.47ZM223.23 45.4174V62.3115H219.447V45.4174H223.23Z" fill="#8C8C8C"/>
<path d="M243.814 59.3875V62.3115H234.821V59.3875H243.814ZM236.109 45.4174V62.3115H232.327V45.4174H236.109ZM242.653 52.2168V55.048H234.821V52.2168H242.653ZM243.825 45.4174V48.353H234.821V45.4174H243.825Z" fill="#8C8C8C"/>
<path d="M254.43 57.8559C254.43 57.5697 254.388 57.3144 254.303 57.0901C254.218 56.858 254.063 56.6453 253.839 56.4519C253.614 56.2585 253.297 56.0652 252.887 55.8718C252.477 55.6707 251.94 55.4657 251.274 55.2568C250.516 55.0093 249.793 54.7308 249.105 54.4214C248.424 54.1042 247.817 53.7368 247.283 53.3191C246.749 52.9014 246.328 52.4141 246.018 51.8571C245.717 51.3002 245.566 50.6504 245.566 49.9078C245.566 49.1884 245.724 48.5386 246.041 47.9585C246.359 47.3783 246.803 46.8833 247.376 46.4733C247.948 46.0556 248.621 45.7384 249.395 45.5218C250.168 45.2975 251.019 45.1853 251.947 45.1853C253.185 45.1853 254.272 45.4058 255.208 45.8467C256.152 46.2799 256.886 46.891 257.412 47.68C257.938 48.4613 258.201 49.3702 258.201 50.4067H254.442C254.442 49.9503 254.345 49.5481 254.152 49.2C253.966 48.8442 253.68 48.5657 253.293 48.3646C252.914 48.1635 252.439 48.0629 251.866 48.0629C251.309 48.0629 250.841 48.148 250.462 48.3182C250.091 48.4806 249.809 48.7049 249.615 48.9912C249.43 49.2774 249.337 49.5906 249.337 49.931C249.337 50.2017 249.406 50.4493 249.546 50.6736C249.693 50.8902 249.901 51.0952 250.172 51.2886C250.451 51.4742 250.791 51.6521 251.193 51.8223C251.595 51.9925 252.056 52.1549 252.574 52.3096C253.479 52.5958 254.28 52.913 254.976 53.2611C255.68 53.6092 256.271 54.0037 256.751 54.4446C257.231 54.8855 257.59 55.3844 257.83 55.9414C258.078 56.4983 258.201 57.1288 258.201 57.8327C258.201 58.583 258.054 59.2483 257.761 59.8284C257.474 60.4086 257.057 60.9036 256.507 61.3136C255.966 61.7159 255.316 62.0214 254.558 62.2303C253.8 62.4391 252.953 62.5435 252.017 62.5435C251.166 62.5435 250.327 62.4352 249.499 62.2187C248.671 61.9943 247.921 61.654 247.248 61.1976C246.583 60.7412 246.049 60.161 245.647 59.4571C245.252 58.7455 245.055 57.9023 245.055 56.9277H248.838C248.838 57.4382 248.911 57.8714 249.058 58.2272C249.205 58.5753 249.414 58.8576 249.685 59.0742C249.963 59.2908 250.3 59.4455 250.694 59.5383C251.089 59.6312 251.53 59.6776 252.017 59.6776C252.582 59.6776 253.038 59.6002 253.386 59.4455C253.742 59.2831 254.005 59.0626 254.175 58.7841C254.345 58.5057 254.43 58.1963 254.43 57.8559Z" fill="#8C8C8C"/>
</svg>
