<svg width="24" height="24" viewBox="0 0 24 24" fill="none" xmlns="http://www.w3.org/2000/svg">
<path d="M16.4847 12.0422L22.6359 5.31382V18.6937L16.4847 12.0422ZM8.55836 13.1816L10.7184 15.5423C11.0575 15.9049 11.4995 16.124 11.9825 16.124H11.9995H12.0125C12.4965 16.124 12.9385 15.9037 13.2816 15.5386L13.2786 15.5411L15.4386 13.1804L22.0049 20.2801H1.99508L8.55836 13.1816ZM1.98608 3.7186H22.0169L12.3955 14.2392C12.2878 14.348 12.1536 14.4067 12.0155 14.4054H12.0015H11.9885C11.8499 14.4067 11.7153 14.3475 11.6075 14.238L11.6085 14.2392L1.98608 3.7186ZM1.36506 5.31256L7.51531 12.0409L1.36506 18.6887V5.31256ZM22.966 2.23922C22.7259 2.08813 22.4439 2 22.1449 2H1.85908C1.56935 2.00144 1.28373 2.08628 1.02404 2.24803L1.03504 2.24174C0.724896 2.43498 0.463716 2.73332 0.280866 3.1032C0.0980168 3.47309 0.000749391 3.89986 0 4.33554L0 19.6607C0.000529426 20.2809 0.196461 20.8755 0.544803 21.3141C0.893145 21.7527 1.36545 21.9993 1.85808 22H22.1419C22.6346 21.9993 23.1069 21.7527 23.4552 21.3141C23.8035 20.8755 23.9995 20.2809 24 19.6607V4.33554C24 3.42021 23.581 2.62701 22.971 2.24551L22.96 2.23922H22.966Z" fill="black"/>
</svg>
