<svg width="36" height="36" viewBox="0 0 36 36" fill="none" xmlns="http://www.w3.org/2000/svg">
<circle cx="18" cy="18" r="18" fill="#3757CB"/>
<path d="M17.9995 10.8594C20.325 10.8594 20.6004 10.8681 21.519 10.91C22.0714 10.9168 22.6185 11.0182 23.1366 11.2099C23.5122 11.3548 23.8534 11.5767 24.1382 11.8615C24.4229 12.1462 24.6448 12.4874 24.7897 12.8631C24.9814 13.3811 25.0828 13.9282 25.0896 14.4806C25.1311 15.3993 25.1402 15.6746 25.1402 18.0001C25.1402 20.3256 25.1315 20.601 25.0896 21.5197C25.0828 22.072 24.9814 22.6191 24.7897 23.1372C24.6448 23.5129 24.4229 23.8541 24.1382 24.1388C23.8534 24.4235 23.5122 24.6455 23.1366 24.7904C22.6185 24.982 22.0714 25.0835 21.519 25.0902C20.6008 25.1317 20.3254 25.1408 17.9995 25.1408C15.6736 25.1408 15.3982 25.1321 14.48 25.0902C13.9276 25.0835 13.3805 24.982 12.8625 24.7904C12.4868 24.6455 12.1456 24.4235 11.8608 24.1388C11.5761 23.8541 11.3542 23.5129 11.2093 23.1372C11.0176 22.6191 10.9162 22.072 10.9094 21.5197C10.8679 20.601 10.8588 20.3256 10.8588 18.0001C10.8588 15.6746 10.8675 15.3993 10.9094 14.4806C10.9162 13.9282 11.0176 13.3811 11.2093 12.8631C11.3542 12.4874 11.5761 12.1462 11.8608 11.8615C12.1456 11.5767 12.4868 11.3548 12.8625 11.2099C13.3805 11.0182 13.9276 10.9168 14.48 10.91C15.3986 10.8686 15.674 10.8594 17.9995 10.8594ZM17.9995 9.29004C15.6354 9.29004 15.3377 9.29999 14.4086 9.3423C13.6857 9.35668 12.9705 9.49355 12.2934 9.74709C11.7126 9.96594 11.1865 10.3089 10.7518 10.752C10.3083 11.1868 9.96503 11.7132 9.74605 12.2945C9.4925 12.9716 9.35563 13.6868 9.34125 14.4097C9.29978 15.3379 9.28983 15.6357 9.28983 17.9997C9.28983 20.3638 9.29978 20.6616 9.34208 21.5906C9.35646 22.3135 9.49333 23.0287 9.74688 23.7058C9.96562 24.2869 10.3086 24.8133 10.7518 25.2482C11.1867 25.6915 11.7131 26.0344 12.2942 26.2532C12.9714 26.5067 13.6866 26.6436 14.4095 26.658C15.3385 26.6994 15.635 26.7102 18.0003 26.7102C20.3656 26.7102 20.6622 26.7003 21.5912 26.658C22.3141 26.6436 23.0293 26.5067 23.7064 26.2532C24.2848 26.029 24.81 25.6865 25.2485 25.2478C25.687 24.809 26.0291 24.2835 26.253 23.705C26.5065 23.0279 26.6434 22.3126 26.6578 21.5898C26.6992 20.6616 26.7092 20.3638 26.7092 17.9997C26.7092 15.6357 26.6992 15.3379 26.6569 14.4088C26.6425 13.686 26.5057 12.9707 26.2521 12.2936C26.0334 11.7125 25.6904 11.1861 25.2472 10.7512C24.8123 10.308 24.2859 9.965 23.7048 9.74626C23.0276 9.49272 22.3124 9.35585 21.5895 9.34147C20.6613 9.29999 20.3636 9.29004 17.9995 9.29004Z" fill="white"/>
<path d="M17.9998 13.5303C17.1152 13.5303 16.2504 13.7926 15.5149 14.284C14.7794 14.7755 14.2061 15.474 13.8676 16.2913C13.5291 17.1086 13.4405 18.0079 13.6131 18.8755C13.7856 19.7431 14.2116 20.54 14.8371 21.1655C15.4626 21.791 16.2596 22.217 17.1272 22.3896C17.9948 22.5622 18.8941 22.4736 19.7114 22.1351C20.5286 21.7965 21.2272 21.2233 21.7186 20.4878C22.2101 19.7522 22.4724 18.8875 22.4724 18.0029C22.4724 16.8167 22.0012 15.6791 21.1624 14.8403C20.3236 14.0015 19.186 13.5303 17.9998 13.5303ZM17.9998 20.9061C17.4256 20.9061 16.8642 20.7359 16.3868 20.4168C15.9094 20.0978 15.5373 19.6444 15.3175 19.1139C15.0978 18.5834 15.0403 17.9997 15.1523 17.4365C15.2643 16.8733 15.5408 16.356 15.9469 15.95C16.3529 15.544 16.8702 15.2675 17.4334 15.1555C17.9965 15.0434 18.5803 15.1009 19.1108 15.3207C19.6413 15.5404 20.0947 15.9125 20.4137 16.39C20.7327 16.8674 20.903 17.4287 20.903 18.0029C20.903 18.7729 20.5971 19.5113 20.0526 20.0558C19.5082 20.6003 18.7697 20.9061 17.9998 20.9061Z" fill="white"/>
<path d="M22.649 14.394C23.2262 14.394 23.6941 13.9261 23.6941 13.3489C23.6941 12.7716 23.2262 12.3037 22.649 12.3037C22.0717 12.3037 21.6038 12.7716 21.6038 13.3489C21.6038 13.9261 22.0717 14.394 22.649 14.394Z" fill="white"/>
</svg>
