<svg width="36" height="36" viewBox="0 0 36 36" fill="none" xmlns="http://www.w3.org/2000/svg">
<circle cx="18" cy="18" r="18" fill="#3757CB"/>
<path d="M13.8626 14.5238V26H10.2103V14.5238H13.8626ZM14.0951 10.9802C14.1024 11.5438 13.9161 12.0148 13.5361 12.3931C13.1561 12.7713 12.6562 12.9605 12.0365 12.9605H12.0143C11.4093 12.9605 10.9223 12.7713 10.5534 12.3931C10.1845 12.0148 10 11.5438 10 10.9802C10 10.4089 10.19 9.93608 10.57 9.56165C10.95 9.18722 11.4462 9 12.0586 9C12.671 9 13.1617 9.18722 13.5306 9.56165C13.8995 9.93608 14.0877 10.4089 14.0951 10.9802ZM27 19.4223V26H23.3587V19.8624C23.3587 19.0518 23.2093 18.4168 22.9105 17.9574C22.6117 17.4981 22.145 17.2684 21.5104 17.2684C21.0456 17.2684 20.6564 17.4016 20.3428 17.6679C20.0292 17.9343 19.7949 18.2643 19.64 18.658C19.5588 18.8896 19.5182 19.2023 19.5182 19.596V26H15.877C15.8917 22.9196 15.8991 20.4221 15.8991 18.5075C15.8991 16.5929 15.8954 15.4503 15.888 15.0797L15.877 14.5238H19.5182V16.1914H19.4961C19.6437 15.9444 19.7949 15.7282 19.9499 15.5429C20.1048 15.3576 20.3133 15.1569 20.5752 14.9407C20.8371 14.7246 21.1581 14.5567 21.5381 14.437C21.9181 14.3173 22.3405 14.2575 22.8053 14.2575C24.0671 14.2575 25.0816 14.6956 25.849 15.5719C26.6163 16.4481 27 17.7316 27 19.4223Z" fill="white"/>
</svg>
