<svg width="32" height="32" viewBox="0 0 32 32" fill="none" xmlns="http://www.w3.org/2000/svg">
<path d="M13.456 19.263C14.4438 19.263 15.2445 18.4622 15.2445 17.4744C15.2445 16.4866 14.4438 15.6859 13.456 15.6859C12.4682 15.6859 11.6675 16.4866 11.6675 17.4744C11.6675 18.4622 12.4682 19.263 13.456 19.263Z" fill="white"/>
<path d="M18.5036 19.263C19.4914 19.263 20.2922 18.4622 20.2922 17.4744C20.2922 16.4866 19.4914 15.6859 18.5036 15.6859C17.5159 15.6859 16.7151 16.4866 16.7151 17.4744C16.7151 18.4622 17.5159 19.263 18.5036 19.263Z" fill="white"/>
<path d="M16.0028 14.8942C16.9906 14.8942 17.7913 14.0934 17.7913 13.1057C17.7913 12.1179 16.9906 11.3171 16.0028 11.3171C15.015 11.3171 14.2143 12.1179 14.2143 13.1057C14.2143 14.0934 15.015 14.8942 16.0028 14.8942Z" fill="white"/>
<path d="M30.576 0L21.5708 9.00541C20.6637 8.28053 19.6487 7.75808 18.5857 7.43947C18.4598 7.4012 18.3318 7.36503 18.2031 7.33303C17.3955 7.12781 16.5656 7.03806 15.7377 7.06241C15.328 7.07424 14.919 7.11389 14.5148 7.18137C12.743 7.47773 11.0442 8.30974 9.67722 9.67673C8.31026 11.0437 7.47757 12.7425 7.18122 14.5151C7.11374 14.9179 7.07409 15.3255 7.06226 15.7332C7.03722 16.5652 7.12765 17.4 7.33496 18.2119C7.36626 18.3378 7.40174 18.463 7.4393 18.5861C7.75861 19.6498 8.28035 20.6648 9.00522 21.5713L0 30.5767L3.95061 24.2085C4.72417 22.9612 4.90922 21.43 4.42574 20.0443C4.04104 18.9409 3.81843 17.7931 3.75861 16.6383C3.58539 13.2914 4.77635 9.88821 7.33217 7.33233C9.888 4.77645 13.2918 3.58547 16.6379 3.75869C17.792 3.81852 18.9398 4.04113 20.0438 4.42583C21.4296 4.90932 22.9607 4.72428 24.208 3.95069L30.576 0Z" fill="white"/>
<path d="M32 1.42403L28.0494 7.79217C27.2758 9.0395 27.0908 10.5707 27.5743 11.9564C27.959 13.0598 28.1816 14.2076 28.2414 15.3617C28.4146 18.7086 27.2237 22.1125 24.6678 24.6677C22.112 27.2235 18.7082 28.4145 15.3621 28.2413C14.208 28.1815 13.0602 27.9589 11.9562 27.5742C10.5704 27.0907 9.03932 27.2757 7.79201 28.0493L1.42401 32L10.4292 22.9946C11.3364 23.7195 12.3506 24.2412 13.4143 24.5605C13.5402 24.5981 13.6661 24.6336 13.7934 24.6656C14.6052 24.8729 15.4393 24.9633 16.272 24.9376C16.6776 24.9251 17.0831 24.8861 17.4845 24.8186C19.2564 24.5209 20.9558 23.6896 22.3228 22.3226C23.6898 20.9556 24.5217 19.2568 24.8181 17.4849C24.8856 17.0814 24.9252 16.6744 24.9371 16.2668C24.9628 15.4396 24.8724 14.6083 24.6678 13.8013C24.6351 13.6713 24.599 13.5419 24.5607 13.4132C24.2414 12.3495 23.7197 11.3345 22.9948 10.428L32 1.42264V1.42403Z" fill="white"/>
</svg>
