<svg width="36" height="36" viewBox="0 0 36 36" fill="none" xmlns="http://www.w3.org/2000/svg">
<circle cx="18" cy="18" r="18" fill="#3757CB"/>
<g clip-path="url(#clip0_0_664)">
<path d="M12.4267 19.1836C12.4267 19.4883 12.3233 19.748 12.1165 19.9629C11.9096 20.1777 11.6633 20.2852 11.3775 20.2852C11.0841 20.2852 10.834 20.1777 10.6272 19.9629C10.4204 19.748 10.3169 19.4883 10.3169 19.1836C10.3169 18.8867 10.4204 18.6309 10.6272 18.416C10.834 18.2012 11.0841 18.0937 11.3775 18.0937C11.6633 18.0937 11.9096 18.2012 12.1165 18.416C12.3233 18.6309 12.4267 18.8867 12.4267 19.1836ZM25.1361 18.3984C25.1361 18.3984 25.1878 18.4512 25.2913 18.5566C25.3947 18.6621 25.4464 18.8672 25.4464 19.1719C25.4464 19.4766 25.343 19.7363 25.1361 19.9512C24.9293 20.166 24.6792 20.2734 24.3859 20.2734C24.0925 20.2734 23.8424 20.166 23.6356 19.9512C23.4288 19.7363 23.3253 19.4766 23.3253 19.1719C23.3253 18.8672 23.4288 18.6094 23.6356 18.3984C23.8424 18.1875 24.0925 18.082 24.3859 18.082C24.6792 18.082 24.9293 18.1875 25.1361 18.3984ZM13.7129 19.1836C13.7129 18.5664 13.5004 18.0352 13.0754 17.5898C12.6505 17.1445 12.1371 16.9219 11.5354 16.9219C10.9337 16.9219 10.4204 17.1426 9.9954 17.584C9.57044 18.0254 9.35796 18.5586 9.35796 19.1836C9.35796 19.8086 9.57044 20.3418 9.9954 20.7832C10.4204 21.2246 10.9337 21.4453 11.5354 21.4453C12.1371 21.4453 12.6505 21.2246 13.0754 20.7832C13.5004 20.3418 13.7129 19.8086 13.7129 19.1836ZM26.0838 20.7715C26.0838 20.7715 26.1901 20.6611 26.4026 20.4404C26.615 20.2197 26.7213 19.7969 26.7213 19.1719C26.7213 18.5469 26.5088 18.0137 26.0838 17.5723C25.6589 17.1309 25.1455 16.9102 24.5438 16.9102C23.9496 16.9102 23.4382 17.1309 23.0094 17.5723C22.5807 18.0137 22.3664 18.5469 22.3664 19.1719C22.3664 19.7969 22.5788 20.3301 23.0038 20.7715C23.4288 21.2129 23.9421 21.4336 24.5438 21.4336C25.1455 21.4336 25.6589 21.2129 26.0838 20.7715ZM14.6719 19.1836C14.6719 20.0898 14.3654 20.8613 13.7524 21.498C13.1394 22.1348 12.4004 22.4531 11.5354 22.4531C10.6629 22.4531 9.92019 22.1328 9.30719 21.4922C8.69419 20.8516 8.38769 20.082 8.38769 19.1836C8.38769 18.2852 8.69607 17.5176 9.31283 16.8809C9.92959 16.2441 10.6705 15.9258 11.5354 15.9258C12.4004 15.9258 13.1394 16.2441 13.7524 16.8809C14.3654 17.5176 14.6719 18.2852 14.6719 19.1836ZM26.7721 16.8691C26.7721 16.8691 26.9253 17.0283 27.2318 17.3467C27.5383 17.665 27.6916 18.2734 27.6916 19.1719C27.6916 20.0703 27.3851 20.8379 26.7721 21.4746C26.1591 22.1113 25.4163 22.4297 24.5438 22.4297C23.6788 22.4297 22.9399 22.1113 22.3269 21.4746C21.7139 20.8379 21.4074 20.0703 21.4074 19.1719C21.4074 18.2734 21.7139 17.5059 22.3269 16.8691C22.9399 16.2324 23.6788 15.9141 24.5438 15.9141C25.4163 15.9141 26.1591 16.2324 26.7721 16.8691ZM15.2868 23.0332C15.2868 23.0332 15.5416 22.7686 16.0511 22.2393C16.5607 21.71 16.8155 20.6992 16.8155 19.207C16.8155 17.7148 16.3059 16.4395 15.2868 15.3809C14.2676 14.3223 13.0397 13.793 11.6031 13.793C10.6629 13.793 9.7942 14.0352 8.99693 14.5195C8.19965 15.0039 7.56785 15.6621 7.10152 16.4941C6.63519 17.3262 6.40202 18.2305 6.40202 19.207C6.40202 20.1836 6.63519 21.0879 7.10152 21.9199C7.56785 22.752 8.19965 23.4102 8.99693 23.8945C9.7942 24.3789 10.6629 24.6211 11.6031 24.6211C13.0397 24.6211 14.2676 24.0918 15.2868 23.0332ZM24.352 12.4922C22.4416 11.625 20.3506 11.1914 18.0791 11.1914C15.6798 11.1914 13.5249 11.6211 11.6144 12.4805C12.4944 12.4805 13.3331 12.6582 14.1303 13.0137C14.9276 13.3691 15.6139 13.8477 16.1893 14.4492C16.7647 15.0508 17.2235 15.7656 17.5658 16.5937C17.908 17.4219 18.0791 18.293 18.0791 19.207C18.0791 18.3086 18.2427 17.4512 18.5699 16.6348C18.8971 15.8184 19.3408 15.1133 19.9012 14.5195C20.4615 13.9258 21.1291 13.4453 21.9038 13.0781C22.6785 12.7109 23.4946 12.5156 24.352 12.4922ZM28.2331 23.0332C28.2331 23.0332 28.4869 22.7686 28.9946 22.2393C29.5023 21.71 29.7562 20.6992 29.7562 19.207C29.7562 17.7148 29.2485 16.4395 28.2331 15.3809C27.2177 14.3223 25.9917 13.793 24.5551 13.793C23.1185 13.793 21.8906 14.3223 20.8715 15.3809C19.8523 16.4395 19.3427 17.7148 19.3427 19.207C19.3427 20.6992 19.8523 21.9746 20.8715 23.0332C21.8906 24.0918 23.1185 24.6211 24.5551 24.6211C25.9917 24.6211 27.2177 24.0918 28.2331 23.0332ZM26.7551 12.5742H31.0762C30.7453 12.9727 30.4632 13.4199 30.2301 13.916C29.9969 14.4121 29.8465 14.8594 29.7788 15.2578C30.6061 16.4375 31.0198 17.7539 31.0198 19.207C31.0198 20.4258 30.7302 21.5508 30.1511 22.582C29.5719 23.6133 28.7859 24.4277 27.7931 25.0254C26.8003 25.623 25.7209 25.9219 24.5551 25.9219C23.5547 25.9219 22.6183 25.7031 21.7458 25.2656C20.8733 24.8281 20.1362 24.2227 19.5345 23.4492C19.181 23.8867 18.6959 24.5859 18.0791 25.5469C17.9964 25.375 17.7952 25.0527 17.4755 24.5801C17.1558 24.1074 16.8757 23.7266 16.635 23.4375C16.0333 24.2109 15.2943 24.8184 14.418 25.2598C13.5418 25.7012 12.6035 25.9219 11.6031 25.9219C10.4373 25.9219 9.35796 25.623 8.36512 25.0254C7.37229 24.4277 6.5863 23.6133 6.00714 22.582C5.42799 21.5508 5.13841 20.4258 5.13841 19.207C5.13841 17.7539 5.55209 16.4375 6.37946 15.2578C6.31176 14.8594 6.16133 14.4121 5.92817 13.916C5.695 13.4199 5.41295 12.9727 5.082 12.5742H9.20001C10.3207 11.793 11.6558 11.1816 13.2052 10.7402C14.7546 10.2988 16.3793 10.0781 18.0791 10.0781C19.7639 10.0781 21.3472 10.2969 22.8289 10.7344C24.3107 11.1719 25.6194 11.7852 26.7551 12.5742Z" fill="white"/>
</g>
<defs>
<clipPath id="clip0_0_664">
<rect width="26" height="21" fill="white" transform="matrix(1 0 0 -1 5.0791 28.5)"/>
</clipPath>
</defs>
</svg>
